PathFileType	4	(X/Y/Z)	s10c0402.trc
DataRate	CameraRate	NumFrames	NumMarkers	Units	OrigDataRate	OrigDataStartFrame	OrigNumFrames
200	200	5	49	mm	200	1500	2000
Frame#	Time	racr			lacr			c7			jug			rlel			rdr			llel			ldr			s2			lic			ric			lasi			rasi			rpsi			lpsi			rgt			lgt			rth1			rth2			rth3			rth4			rlfc			rmfc			rsh1			rsh2			rsh3			rsh4			rlmal			rmmal			rcal			rtoe			rmt5			lth1			lth2			lth4			lth3			llfc			lmfc			llmal			lcal			lmt5			lsh1			lsh2			lsh3			lsh4			ltoe			SBIKE			LBIKE			RBIKE			
		X1	Y1	Z1	X2	Y2	Z2	X3	Y3	Z3	X4	Y4	Z4	X5	Y5	Z5	X6	Y6	Z6	X7	Y7	Z7	X8	Y8	Z8	X9	Y9	Z9	X10	Y10	Z10	X11	Y11	Z11	X12	Y12	Z12	X13	Y13	Z13	X14	Y14	Z14	X15	Y15	Z15	X16	Y16	Z16	X17	Y17	Z17	X18	Y18	Z18	X19	Y19	Z19	X20	Y20	Z20	X21	Y21	Z21	X22	Y22	Z22	X23	Y23	Z23	X24	Y24	Z24	X25	Y25	Z25	X26	Y26	Z26	X27	Y27	Z27	X28	Y28	Z28	X29	Y29	Z29	X30	Y30	Z30	X31	Y31	Z31	X32	Y32	Z32	X33	Y33	Z33	X34	Y34	Z34	X35	Y35	Z35	X36	Y36	Z36	X37	Y37	Z37	X38	Y38	Z38	X39	Y39	Z39	X40	Y40	Z40	X41	Y41	Z41	X42	Y42	Z42	X43	Y43	Z43	X44	Y44	Z44	X45	Y45	Z45	X46	Y46	Z46	X47	Y47	Z47	X48	Y48	Z48	X49	Y49	Z49	
1500	7.5000	715.946144	1330.810164	-89.819975	666.647162	1334.965933	-378.741713	681.686665	1351.251345	-227.013899	664.415233	1204.348497	-228.848792	576.279195	1105.118182	27.643860	626.823612	911.054177	-37.671124	537.681889	1103.250936	-495.747085	625.651405	908.976010	-429.727651	144.583767	1163.834276	-230.545178	315.579752	1161.324643	-372.964215	318.614782	1146.528482	-79.890759	334.646569	1068.894354	-349.554855	297.034767	1063.229293	-94.908919	190.026644	1211.089711	-168.424945	202.987491	1216.584180	-277.273974	182.238148	1056.838014	-44.678302	211.896687	1040.976357	-423.786724	256.735520	925.109166	-24.596568	332.119353	877.954557	-34.129099	370.757552	802.103485	-40.247000	358.444772	904.416762	-38.079111	453.196307	720.435875	-59.214875	448.363949	713.092714	-175.378257	381.878004	631.484141	-27.768617	356.369554	547.212044	-40.463639	294.577658	486.745899	-41.384820	380.420539	535.785788	-68.440821	237.771515	392.725725	-55.728673	257.761243	408.940385	-136.327586	176.205894	375.999659	-99.861489	414.296309	327.337422	-107.020388	331.965202	310.459902	-42.409623	266.900997	916.289910	-434.665603	326.004773	853.829672	-422.324275	355.677669	871.222664	-411.387750	345.094124	767.277698	-414.500621	377.715996	659.215642	-396.959435	381.466634	650.308378	-279.880563	58.318606	450.856313	-393.066431	18.655708	487.264702	-343.164171	14.543623	308.139582	-398.592315	267.064554	604.625394	-431.052123	216.194892	535.476657	-413.628773	134.169280	499.947288	-410.449260	235.805880	516.178883	-387.033862	63.045397	237.147674	-340.931850	-180.804193	823.134011	-210.800874	-103.649392	80.614035	-418.204784	-103.933163	80.512812	-18.316894	
1501	7.5050	713.066476	1332.640525	-89.884130	668.327238	1336.257978	-379.792765	681.484452	1352.093148	-227.316879	664.507698	1205.432677	-230.083680	575.556161	1105.680671	26.801659	626.874684	911.160586	-37.625356	538.761402	1103.651350	-496.921295	625.903187	909.000444	-430.102474	144.791468	1163.517522	-228.290047	313.905442	1161.505626	-372.102203	321.355001	1145.359647	-80.542259	333.288905	1068.798929	-348.743616	298.547516	1061.715707	-95.034699	190.973624	1210.841726	-165.927789	202.661367	1216.852484	-275.446463	183.860871	1055.833631	-43.264098	211.130686	1041.279524	-421.783687	256.592937	921.835811	-23.694085	329.982123	872.083639	-33.979075	366.298452	794.981382	-40.828998	357.101309	897.461380	-38.574508	445.091337	709.311863	-60.736088	439.432369	701.965359	-175.770597	375.176545	619.160528	-28.741871	350.821076	534.563047	-42.067911	290.019606	473.241643	-42.370727	374.571961	523.750619	-70.579667	234.966594	380.198473	-55.919133	254.533815	396.578348	-136.930180	173.560735	363.033876	-100.078583	412.173032	316.931117	-107.466441	330.434342	299.646874	-41.859808	267.943251	917.540711	-433.328887	328.493512	856.317713	-421.522479	357.914349	874.359237	-410.975778	350.014070	770.772206	-414.290835	385.571229	663.119628	-395.283924	389.086917	655.774758	-277.189819	63.917045	459.578242	-392.816812	25.377691	497.067053	-342.940686	16.038233	318.149259	-398.581905	276.064517	608.233452	-428.814034	224.377876	541.393122	-413.183403	141.162995	506.429634	-409.767543	244.030012	522.855052	-386.397918	62.542994	245.746487	-341.004305	-180.803471	823.168077	-210.741055	-103.966726	80.695555	-418.528775	-103.934900	80.505806	-18.322140	
1502	7.5100	710.018852	1334.490069	-89.828230	670.033507	1337.574003	-380.826603	681.213189	1352.790904	-227.659501	664.487013	1206.195186	-230.980609	574.651026	1106.315274	25.912346	626.813213	911.332296	-37.714992	539.933297	1104.074511	-498.120776	626.215425	908.986771	-430.579330	145.221127	1163.677297	-225.931395	312.321674	1161.663330	-371.533864	324.251525	1144.194818	-81.086878	331.680311	1068.549156	-347.948397	301.091151	1060.520769	-93.850113	191.800796	1210.603394	-163.274989	202.250505	1216.929649	-273.611375	185.592514	1054.685400	-41.941518	210.398379	1041.318069	-419.772297	256.681077	918.570400	-22.502599	327.969652	866.143132	-33.850544	361.495613	787.741680	-41.539673	356.047559	890.864771	-38.361685	436.734302	698.303619	-62.338625	429.864366	690.640154	-176.192943	368.276368	606.756382	-29.781468	344.958567	522.233367	-43.411213	284.991490	459.707100	-43.322773	368.250085	511.854981	-72.621685	231.753633	368.272137	-56.092416	251.219758	384.665407	-137.256451	170.473984	350.520289	-100.185390	409.564501	306.909412	-107.392323	327.961282	288.625606	-41.925796	268.858051	918.679551	-432.018552	330.216547	858.340603	-419.787437	359.982020	877.434067	-410.346413	353.977563	773.551015	-413.337505	393.256483	667.352261	-393.769382	395.722023	661.329970	-274.681515	69.574810	468.232501	-392.475981	32.079346	506.481482	-342.750210	18.231656	328.037684	-398.573200	284.951631	612.234487	-427.347138	231.982132	546.473329	-411.504015	148.239176	512.734098	-409.074930	251.008924	527.943342	-384.195596	62.774542	254.372446	-341.033700	-180.777702	823.128931	-210.766968	-103.988083	80.664115	-418.461935	-103.932146	80.516968	-18.319897	
1503	7.5150	706.837608	1336.328960	-89.553883	671.752798	1338.720824	-381.827003	680.857826	1353.560707	-227.955772	664.517651	1207.068182	-232.140052	573.792466	1106.946475	25.408936	626.791187	911.462787	-37.734578	541.164259	1104.552757	-499.310507	626.577691	909.021970	-431.328651	145.568282	1163.634763	-223.546341	310.670535	1161.440161	-370.855274	326.934161	1142.896261	-81.955220	330.159248	1068.064925	-347.217382	303.398980	1059.004136	-93.250066	192.343877	1210.280136	-160.611542	201.857202	1216.638685	-271.994031	187.590990	1053.153667	-40.491344	209.564904	1041.139385	-417.819535	256.796692	914.911332	-21.609948	326.022658	859.947134	-33.778812	356.651181	780.388075	-42.330004	354.975728	883.648864	-38.636578	427.955316	687.505923	-63.910237	418.918413	679.496072	-176.891505	360.823775	594.706823	-30.867474	338.541462	509.897787	-44.872292	279.460345	446.688203	-43.934894	361.627029	500.125992	-74.389599	228.039951	356.435139	-56.394964	245.962767	372.293232	-138.375782	166.986030	338.411606	-100.350423	406.553269	296.743924	-107.351713	324.959437	277.997977	-41.908142	269.688525	919.647478	-430.883843	332.397333	860.578985	-418.822239	361.883201	880.266946	-409.433526	358.031558	776.335993	-412.516413	400.880289	671.600558	-392.357069	401.786052	666.582164	-272.223700	75.570948	476.983384	-392.381286	38.884965	516.074923	-342.760921	21.001573	337.850462	-398.600707	293.754794	616.275800	-425.767480	240.296014	551.791534	-410.084546	155.822561	519.177437	-408.642724	256.808784	532.576231	-381.198431	63.761606	263.268117	-341.068426	-180.838707	823.125909	-210.872129	-103.973666	80.651012	-418.424833	-103.924918	80.492175	-18.328470	
1504	7.5200	703.696036	1338.165705	-88.920480	673.495501	1340.030649	-382.815082	680.407689	1354.192250	-228.199593	664.481186	1207.851479	-233.064042	572.537814	1107.460697	24.703861	626.733415	911.530556	-37.728571	542.547809	1105.069879	-500.444130	626.893360	909.043879	-432.129865	145.911000	1163.130353	-221.301848	309.050056	1160.899604	-370.330942	329.618812	1141.883525	-82.348969	328.387666	1067.517069	-346.608767	305.857866	1057.491873	-92.695636	193.074557	1209.543273	-158.338603	201.473110	1216.049599	-270.385072	189.658509	1051.366598	-39.106395	208.722312	1040.716771	-415.877571	257.119506	911.043377	-20.629886	324.216024	853.608724	-33.807559	351.318364	772.998472	-43.516692	354.009170	876.260782	-38.852464	419.180969	677.030659	-65.658677	406.827439	667.944916	-177.904139	353.110095	584.161860	-31.756883	331.916583	499.050264	-46.136357	274.165090	434.797832	-44.522575	355.159007	489.794986	-75.565844	223.964941	345.133990	-56.528772	241.786100	360.809371	-138.910887	163.133315	327.100124	-100.461447	403.003273	286.581572	-107.351168	321.434516	267.440946	-41.839412	270.495892	920.446203	-429.753445	334.484932	862.786951	-417.748594	363.516643	883.103032	-408.186266	361.308481	778.522679	-410.940702	408.486904	676.001846	-390.876009	407.675176	671.894577	-269.944498	81.575751	485.694529	-392.249846	45.686376	525.466773	-343.217031	24.377867	347.641020	-398.676977	302.398939	620.395758	-424.178087	247.285374	556.445570	-408.240760	163.056799	525.250124	-407.901205	263.631015	537.836120	-378.719985	65.743866	272.179701	-341.108473	-180.712465	823.166392	-210.600065	-103.955498	80.597281	-418.385874	-103.916137	80.481600	-18.331078	
